<svg width="353" height="163" viewBox="0 0 353 163" fill="none" xmlns="http://www.w3.org/2000/svg">
<g filter="url(#filter0_d_104_66)">
<path d="M176.329 4.36454C178.069 2.94062 180.705 1.41122 182.129 0.883839C185.451 -0.276395 188.298 -0.276395 191.936 0.778363C193.886 1.35848 195.468 2.30776 196.944 3.83716C198.473 5.31383 199.422 6.89596 200.002 8.84727C201.057 12.4862 201.057 14.1211 200.002 17.9709C199.159 20.8188 199.159 21.1352 200.002 22.0317C200.477 22.5591 202.164 23.2447 203.746 23.6139C205.802 24.0885 207.12 24.0885 208.596 23.7194C211.76 22.8228 226.048 22.981 230.74 23.9831C235.696 24.9851 241.021 26.9364 243.71 28.7295C245.713 30.0479 245.713 30.0479 248.982 28.7295C250.775 28.0439 253.727 27.1473 255.573 26.7782C259.685 25.9871 268.015 26.409 271.97 27.622C274.606 28.413 275.08 28.413 277.822 27.6747C279.456 27.2001 281.512 26.8309 282.356 26.8309C284.887 26.8309 289.21 28.3076 291.003 29.837C292.637 31.2082 292.637 31.2082 296.169 29.5733C298.12 28.6767 300.967 27.7274 302.496 27.411C308.612 26.1453 315.203 27.0946 318.366 29.7315C319.842 31.0499 320 31.0499 323.902 30.4698C328.7 29.7315 334.552 30.3643 340.299 32.1574C345.044 33.6341 347.997 36.3765 349.209 40.49C350.264 44.1289 350.264 45.922 349.209 49.5082C348.366 52.3033 346.362 54.782 343.199 56.8915C342.144 57.6299 342.091 57.8935 342.619 59.7921C343.515 62.9564 343.304 65.0132 341.881 69.3904C340.563 73.3458 340.563 73.3458 343.146 75.7717C345.097 77.6703 345.94 78.936 346.573 81.0982C347.627 84.7372 347.627 86.583 346.573 90.1692C345.466 93.9136 342.408 96.9196 338.19 98.5018C332.496 100.664 328.173 101.297 321.424 101.033C317.417 100.875 315.097 101.033 314.886 101.35C314.675 101.666 314.623 105.727 314.675 110.368C314.781 117.804 314.623 119.333 313.674 122.55C311.934 128.088 309.719 131.885 306.081 135.366C302.338 139.004 298.068 141.325 292.268 142.907C288.63 143.909 287.207 144.015 279.983 143.804C273.446 143.593 271.02 143.276 268.068 142.327C266.064 141.694 263.007 140.428 261.372 139.585C258.841 138.266 253.974 135.435 251.34 131.313C245.478 122.141 252.242 116.278 245.628 113.722C239.015 111.166 229.846 115.827 183.101 137.177C147.929 155.37 113.958 152.875 113.958 152.875C109.213 152.875 107.42 152.611 101.515 150.976C91.6031 148.234 86.7526 146.019 76.6824 139.69C75.6807 139.057 75.3116 139.057 74.6262 139.637C73.9408 140.217 73.8354 141.009 74.099 143.645C74.3626 145.966 74.2045 147.759 73.5191 149.974C72.3064 154.14 69.7757 156.672 65.6105 157.885C60.3909 159.414 56.2785 158.518 48.8973 154.088C46.472 152.664 46.472 152.664 43.8886 155.353C41.8851 157.516 40.7252 158.254 38.2472 158.939C34.6093 159.994 31.604 159.783 27.3862 158.201C21.0594 155.828 14.9962 149.447 10.3565 140.27C6.24413 132.254 3.81886 124.291 2.86984 116.063C1.92082 107.625 0.602735 83.4715 0.180948 65.5933C-0.135391 53.4636 -0.0826699 51.5123 0.708179 48.7171C1.97354 44.5508 4.50426 42.0194 8.61667 40.8065C10.8838 40.1209 12.5709 40.0154 15.1016 40.2791C18.4759 40.6482 18.4759 40.6482 20.7958 38.5387C22.2193 37.1675 24.1173 36.06 25.8572 35.5854C29.2842 34.5306 35.9801 34.5306 40.567 35.4799C44.8903 36.3765 49.5299 38.4333 52.0607 40.5428C53.1151 41.3866 54.275 42.1249 54.5914 42.1249C55.9095 42.1249 57.1221 39.7517 59.811 31.7883C62.3417 24.405 62.9217 23.192 64.767 21.4516C67.5086 18.8675 71.0938 17.8655 78.3169 17.7072C83.6419 17.6018 84.2746 17.7072 86.9635 19.0257C88.5452 19.8168 90.7068 20.977 91.7613 21.5571C94.7665 23.2447 100.302 24.2467 108.58 24.5632C113.958 24.7741 118.387 24.5632 123.606 23.9831C138.58 22.2427 150.284 19.1312 160.618 14.2265C166.681 11.2732 171.743 8.16167 176.329 4.36454Z" fill="white"/>
</g>
<path d="M292.328 52.209C291.576 48.8229 290.215 41.2252 290.215 41.2252C284.723 42.4925 276.275 55.1662 277.543 73.7541C278.027 80.8547 279.232 88.1176 290.215 88.9625C290.215 88.9625 286.744 81.6165 286.414 75.0215C285.569 58.1233 288.103 55.1662 288.103 55.1662C288.103 55.1662 286.291 58.7718 297.821 76.7113C301.622 82.6257 302.468 89.8074 303.312 93.6095C303.478 94.3552 308.628 86.8401 310.072 78.8236C311.506 70.8561 309.867 61.9047 311.761 55.1662C313.779 47.9893 318.52 41.2252 318.52 41.2252C313.873 41.2252 311.098 41.4606 307.113 45.4497C301.555 51.0146 302.326 59.6723 301.622 66.15C301.622 66.15 293.974 59.6246 292.328 52.209Z" fill="white"/>
<path fill-rule="evenodd" clip-rule="evenodd" d="M183.336 39.1129C183.336 39.1129 190.095 51.7867 189.672 72.4867C189.422 84.7471 186.715 103.748 186.715 103.748C192.207 100.369 194.742 97.8341 197.699 90.2299C198.954 87.0032 200.392 79.5226 201.274 74.9343C201.354 74.5149 201.43 74.1197 201.501 73.7541C201.501 73.7541 219.286 66.8203 216.287 48.8293C214.597 38.6905 206.148 36.5783 198.544 36.5782C192.523 36.5781 183.336 39.1129 183.336 39.1129ZM200.867 61.5656C200.741 58.4706 200.517 52.9222 199.389 47.5622C202.768 47.5622 206.785 48.4288 207.415 53.4765C208.26 60.2358 201.501 64.0379 201.079 64.0379C200.966 64.0379 200.929 63.1054 200.867 61.5656Z" fill="white"/>
<path fill-rule="evenodd" clip-rule="evenodd" d="M217.555 37.4231C217.555 37.4231 220.935 42.0662 220.935 62.7706C220.935 81.3583 216.288 93.187 216.288 93.187C221.78 94.4544 230.229 83.4706 231.074 69.5296C231.074 69.5296 245.86 64.0376 247.127 54.3212C248.56 43.3374 242.692 39.5353 234.031 37.8455C228.121 36.6925 217.555 37.4231 217.555 37.4231ZM231.074 46.717C234.453 46.717 238.255 46.717 237.833 52.6314C237.41 58.5457 230.861 61.0804 230.861 61.0804C231.074 56.8559 231.074 51.364 231.074 46.717Z" fill="white"/>
<path d="M259.378 62.7702C258.533 45.0271 277.965 42.4924 277.965 42.4924C277.965 42.4924 267.305 37.7325 258.328 43.3372C252.369 47.0577 247.549 56.0108 247.549 66.9946C247.549 75.8661 250.149 82.6468 255.154 85.5826C264.869 90.2296 275.431 84.3152 275.431 84.3152C275.431 84.3152 260.222 84.3152 260.222 71.6416C260.222 69.5189 261.067 71.6416 265.292 68.262C268.672 65.7273 270.784 61.9252 270.361 61.5027C269.862 61.0032 265.292 62.7702 263.18 63.1926C262.19 63.3905 259.42 63.6632 259.378 62.7702Z" fill="white"/>
<path d="M328.661 66.7683C327.816 49.0252 347.249 46.4905 347.249 46.4905C347.249 46.4905 336.588 41.7306 327.611 47.3353C321.652 51.0558 316.832 60.0089 316.832 70.9927C316.832 79.8643 319.432 86.6449 324.437 89.5807C334.153 94.2277 344.714 88.3134 344.714 88.3134C344.714 88.3134 329.506 88.3134 329.506 75.6397C329.506 73.517 330.35 75.6397 334.575 72.2601C337.955 69.7254 340.067 65.9233 339.644 65.5008C339.145 65.0014 334.575 66.7683 332.463 67.1907C331.473 67.3887 328.703 67.6613 328.661 66.7683Z" fill="white"/>
<path fill-rule="evenodd" clip-rule="evenodd" d="M158.834 52.2085C181.225 48.8288 183.497 64.5184 182.914 78.4006C182.364 91.4971 172.113 103.218 158.834 102.48C146.235 101.781 137.813 94.3878 137.289 81.7803C136.739 68.5471 145.738 54.1852 158.834 52.2085ZM155.032 80.5133C154.943 74.9096 159.144 69.9449 164.749 69.952C170 69.9586 172.244 73.5996 172.775 78.8235C173.39 84.8629 168.681 90.795 162.637 90.2298C157.398 89.7398 155.116 85.7739 155.032 80.5133Z" fill="white"/>
<path d="M122.926 91.4972C128.431 109.663 136.445 111.353 136.445 111.353C136.445 111.353 133.103 92.6393 132.643 80.5134C132.205 68.9626 133.91 50.9416 133.91 50.9416C133.91 50.9416 157.577 45.9659 170.664 38.268C192.209 25.5944 192.209 12.9208 192.209 12.9208C192.209 12.9208 173.538 33.5671 127.573 38.268C90.3975 42.0701 81.526 30.6638 81.526 30.6638C81.526 30.6638 84.4949 41.0135 90.3975 45.0273C100.959 52.209 119.969 50.9416 119.969 50.9416C119.969 50.9416 120.906 84.8293 122.926 91.4972Z" fill="white"/>
<path d="M16.1156 125.491C23.4272 149.66 34.0715 151.908 34.0715 151.908C34.0715 151.908 29.6322 127.011 29.0214 110.877C28.4396 95.5095 30.7047 77.5561 30.7047 71.5331C30.7047 61.665 11.8201 54.7436 11.8201 54.7436C11.8201 54.7436 13.4318 116.62 16.1156 125.491Z" fill="white"/>
<path d="M83.2328 99.8549C80.275 90.5609 81.1198 67.3259 81.1198 67.3259C93.3711 67.3259 87.0343 94.3628 95.4839 93.9405C106.045 93.4128 105.15 54.5998 113.227 55.4972C117.029 55.9196 117.029 108.304 117.029 108.304C117.029 108.304 113.338 107.298 111.959 103.657C110.552 99.941 109.847 90.5609 109.847 90.5609C109.847 90.5609 106.89 109.571 96.3283 109.571C89.8603 109.571 85.1942 106.018 83.2328 99.8549Z" fill="white"/>
<path d="M36.7449 59.3909C35.5213 53.377 29.5631 49.3651 29.5631 49.3651C46.4613 48.4071 49.8409 56.4337 49.8409 73.3319C64.2044 59.3909 67.1616 57.2786 75.0984 31.9314C85.7495 58.1235 78.7756 66.6497 55.3328 81.3585C55.3328 81.3585 60.7887 88.0934 62.5036 90.23C65.8942 94.4546 80.9615 117.731 105.182 124.026C148.962 135.406 211.294 107.423 227.694 101.636C253.041 92.6935 300.356 81.7809 309.65 107.551C314.72 129.518 299.934 139.235 280.923 134.588C260.912 129.696 272.897 110.085 272.897 110.085C272.897 110.085 278.276 126.26 292.33 116.422C300.175 110.93 292.752 98.6791 280.923 98.2566C265.74 97.1392 240.168 105.882 233.608 108.396C204.543 119.534 176.448 142.789 124.615 144.727C70.9636 146.732 51.9532 83.4504 51.9532 90.23C51.9532 97.0097 52.4239 115.758 56.6002 132.475C58.7913 141.246 62.5036 151.063 62.5036 151.063C62.5036 151.063 49.5854 145.638 44.349 133.32C36.1139 113.949 42.5579 87.9632 36.7449 59.3909Z" fill="white"/>
<path d="M288.948 49.6742C288.196 46.2881 286.836 38.6904 286.836 38.6904C281.344 39.9577 272.896 52.6313 274.163 71.2193C274.647 78.3199 275.853 85.5828 286.836 86.4277C286.836 86.4277 283.364 79.0816 283.035 72.4867C282.19 55.5885 284.724 52.6313 284.724 52.6313C284.724 52.6313 282.912 56.237 294.441 74.1765C298.242 80.0908 299.088 87.2726 299.933 91.0747C300.099 91.8204 305.249 84.3053 306.692 76.2888C308.127 68.3212 306.487 59.3699 308.382 52.6313C310.4 45.4545 315.14 38.6904 315.14 38.6904C310.493 38.6904 307.719 38.9258 303.734 42.9149C298.175 48.4798 298.946 57.1375 298.242 63.6151C298.242 63.6151 290.594 57.0898 288.948 49.6742Z" fill="#F06E1A"/>
<path fill-rule="evenodd" clip-rule="evenodd" d="M179.957 36.5778C179.957 36.5778 186.717 49.2516 186.294 69.9516C186.044 82.212 183.337 101.213 183.337 101.213C188.829 97.8337 191.364 95.299 194.321 87.6948C195.576 84.4681 197.014 76.9875 197.896 72.3992C197.976 71.9798 198.052 71.5846 198.123 71.219C198.123 71.219 215.907 64.2852 212.909 46.2942C211.219 36.1554 202.77 34.0431 195.166 34.043C189.145 34.0429 179.957 36.5778 179.957 36.5778ZM197.488 59.0305C197.363 55.9355 197.139 50.3871 196.011 45.027C199.39 45.027 203.406 45.8937 204.037 50.9414C204.882 57.7007 198.123 61.5027 197.701 61.5027C197.588 61.5027 197.551 60.5702 197.488 59.0305Z" fill="#F06E1A"/>
<path fill-rule="evenodd" clip-rule="evenodd" d="M214.176 34.8884C214.176 34.8884 217.555 39.5315 217.555 60.2358C217.555 78.8236 212.908 90.6523 212.908 90.6523C218.4 91.9197 226.849 80.9358 227.694 66.9949C227.694 66.9949 242.48 61.5029 243.748 51.7865C245.18 40.8027 239.313 37.0006 230.651 35.3108C224.742 34.1578 214.176 34.8884 214.176 34.8884ZM227.694 44.1823C231.074 44.1823 234.876 44.1823 234.454 50.0966C234.031 56.011 227.482 58.5457 227.482 58.5457C227.694 54.3211 227.694 48.8292 227.694 44.1823Z" fill="#F06E1A"/>
<path d="M255.999 60.2354C255.154 42.4923 274.587 39.9576 274.587 39.9576C274.587 39.9576 263.926 35.1977 254.949 40.8024C248.99 44.5229 244.17 53.476 244.17 64.4599C244.17 73.3314 246.77 80.112 251.775 83.0478C261.491 87.6948 272.052 81.7805 272.052 81.7805C272.052 81.7805 256.844 81.7805 256.844 69.1068C256.844 66.9842 257.689 69.1068 261.913 65.7272C265.293 63.1925 267.405 59.3904 266.983 58.968C266.483 58.4685 261.913 60.2354 259.801 60.6579C258.811 60.8558 256.041 61.1285 255.999 60.2354Z" fill="#F06E1A"/>
<path d="M325.281 64.2335C324.436 46.4905 343.869 43.9558 343.869 43.9558C343.869 43.9558 333.208 39.1959 324.231 44.8006C318.272 48.5211 313.452 57.4742 313.452 68.458C313.452 77.3295 316.052 84.1102 321.057 87.046C330.773 91.693 341.334 85.7786 341.334 85.7786C341.334 85.7786 326.126 85.7786 326.126 73.105C326.126 70.9823 326.97 73.105 331.195 69.7254C334.575 67.1906 336.687 63.3885 336.264 62.9661C335.765 62.4666 331.195 64.2335 329.083 64.656C328.093 64.8539 325.323 65.1266 325.281 64.2335Z" fill="#F06E1A"/>
<path fill-rule="evenodd" clip-rule="evenodd" d="M155.454 49.6737C177.844 46.2941 180.117 61.9836 179.534 75.8658C178.984 88.9624 168.733 100.683 155.454 99.9457C142.855 99.2458 134.433 91.853 133.909 79.2455C133.359 66.0123 142.358 51.6504 155.454 49.6737ZM151.652 77.9785C151.563 72.3748 155.764 67.4101 161.369 67.4172C166.62 67.4238 168.864 71.0649 169.395 76.2887C170.01 82.3282 165.301 88.2603 159.257 87.695C154.018 87.2051 151.736 83.2391 151.652 77.9785Z" fill="#F06E1A"/>
<path d="M119.546 88.9624C125.051 107.128 133.065 108.818 133.065 108.818C133.065 108.818 129.723 90.1045 129.263 77.9786C128.825 66.4278 130.53 48.4068 130.53 48.4068C130.53 48.4068 154.197 43.4311 167.284 35.7332C188.829 23.0596 188.829 10.386 188.829 10.386C188.829 10.386 170.158 31.0323 124.193 35.7332C87.0174 39.5353 78.1459 28.1291 78.1459 28.1291C78.1459 28.1291 81.1148 38.4787 87.0174 42.4925C97.5788 49.6742 116.589 48.4068 116.589 48.4068C116.589 48.4068 117.526 82.2945 119.546 88.9624Z" fill="#F06E1A"/>
<path d="M12.7349 122.956C20.0465 147.125 30.6908 149.373 30.6908 149.373C30.6908 149.373 26.2515 124.476 25.6407 108.342C25.0589 92.9744 27.324 75.021 27.324 68.998C27.324 59.1299 8.43942 52.2085 8.43942 52.2085C8.43942 52.2085 10.0511 114.085 12.7349 122.956Z" fill="#F06E1A"/>
<path d="M79.8533 97.3198C76.8956 88.0258 77.7404 64.7908 77.7404 64.7908C89.9917 64.7908 83.6549 91.8278 92.1045 91.4055C102.665 90.8777 101.771 52.0647 109.848 52.9622C113.649 53.3846 113.649 105.768 113.649 105.768C113.649 105.768 109.958 104.763 108.58 101.122C107.173 97.4059 106.468 88.0258 106.468 88.0258C106.468 88.0258 103.51 107.036 92.9488 107.036C86.4809 107.036 81.8148 103.483 79.8533 97.3198Z" fill="#F06E1A"/>
<path d="M33.365 56.8558C32.1415 50.8419 26.1833 46.83 26.1833 46.83C43.0815 45.8719 46.4611 53.8986 46.4611 70.7967C60.8245 56.8558 63.7817 54.7435 71.7186 29.3962C82.3697 55.5884 75.3957 64.1146 51.953 78.8234C51.953 78.8234 57.4088 85.5582 59.1237 87.6949C62.5143 91.9194 77.5817 115.196 101.803 121.491C145.582 132.871 207.914 104.887 224.314 99.1012C249.661 90.1584 296.976 79.2458 306.27 105.016C311.34 126.983 296.554 136.7 277.543 132.053C257.532 127.161 269.517 107.55 269.517 107.55C269.517 107.55 274.896 123.725 288.95 113.887C296.795 108.395 289.372 96.144 277.543 95.7215C262.36 94.6041 236.788 103.347 230.229 105.86C201.164 116.999 173.068 140.254 121.235 142.191C67.5838 144.197 48.5734 80.9152 48.5734 87.6949C48.5734 94.4746 49.044 113.222 53.2203 129.94C55.4114 138.711 59.1237 148.528 59.1237 148.528C59.1237 148.528 46.2056 143.103 40.9692 130.785C32.7341 111.414 39.178 85.4281 33.365 56.8558Z" fill="#F06E1A"/>
<defs>
<filter id="filter0_d_104_66" x="0" y="7.62939e-06" width="352.696" height="162.287" filterUnits="userSpaceOnUse" color-interpolation-filters="sRGB">
<feFlood flood-opacity="0" result="BackgroundImageFix"/>
<feColorMatrix in="SourceAlpha" type="matrix" values="0 0 0 0 0 0 0 0 0 0 0 0 0 0 0 0 0 0 127 0" result="hardAlpha"/>
<feOffset dx="1.34785" dy="1.34785"/>
<feGaussianBlur stdDeviation="0.673923"/>
<feColorMatrix type="matrix" values="0 0 0 0 0.2 0 0 0 0 0 0 0 0 0 0 0 0 0 0.01 0"/>
<feBlend mode="normal" in2="BackgroundImageFix" result="effect1_dropShadow_104_66"/>
<feBlend mode="normal" in="SourceGraphic" in2="effect1_dropShadow_104_66" result="shape"/>
</filter>
</defs>
</svg>
